. 
  
http://www.torrentday.com/        :     The Hottest Private Tracker On The Net!!!
 
http://www.torrentday.com          :     Once & For all ;)


               www . TorrentDay . Com 

(((((((((((((= Enjoy No RAR releases =))))))))))))))))))))


...................................NFO:....................................

.[img]http://www.leetleech.org/images/86616972395625463099.jpg[/img]

::::::::::::::Enjoy:Another:Release:From:T0XiC::::::::::::::

File:: The.Mechanic.2011.TS.XViD-T0XiC-iNK
Video Source:: ....Elektri4ka
Audio Source:: ....Own LiNE
Language::English
IMDB::http://www.imdb.com/title/tt0472399/

Follows an elite hit man as he teaches his trade to an apprentice who 
has a connection to one of his previous victims.

Specs::

General

Format                           : AVI
Format/Info                      : Audio Video Interleave
File size                        : 736 MiB
Duration                         : 1h 25mn
Overall bit rate                 : 1 209 Kbps
Writing application              : VirtualDubMod 1.5.10.2 (build 2540/release)
Writing library                  : VirtualDubMod build 2540/release

Video
ID                               : 0
Format                           : MPEG-4 Visual
Format profile                   : Advanced Simple@L5
Format settings, BVOP            : Yes
Format settings, QPel            : No
Format settings, GMC             : No warppoints
Format settings, Matrix          : Default (MPEG)
Muxing mode                      : Packed bitstream
Codec ID                         : XVID
Codec ID/Hint                    : XviD
Duration                         : 1h 25mn
Bit rate                         : 1 039 Kbps
Width                            : 704 pixels
Height                           : 264 pixels
Display aspect ratio             : 2.667
Frame rate                       : 25.000 fps
Color space                      : YUV
Chroma subsampling               : 4:2:0
Bit depth                        : 8 bits
Scan type                        : Progressive
Bits/(Pixel*Frame)               : 0.224
Stream size                      : 633 MiB (86%)
Writing library                  : XviD 1.2.1 (UTC 2008-12-04)

Audio
ID                               : 1
Format                           : MPEG Audio
Format version                   : Version 1
Format profile                   : Layer 3
Codec ID                         : 55
Codec ID/Hint                    : MP3
Duration                         : 1h 25mn
Bit rate mode                    : Constant
Bit rate                         : 160 Kbps
Channel(s)                       : 2 channels
Sampling rate                    : 48.0 KHz
Stream size                      : 97.4 MiB (13%)
Alignment                        : Aligned on interleaves
Interleave, duration             : 40 ms (1.00 video frame)
Interleave, preload duration     : 504 ms

NOTES:: T0XiC-iNK is proud to present, The Mechanic, the first telesync with our usual great LiNE. Enjoy
Note: A bit of a crop job, but we can only bring you what a source provides.. 

::Why Complain? Whats Free Is Free::

::iNK is currently a free agent looking for work, if you would like iNK's touch, give me a email at:
...digital.ink@live.com

::We are always looking for friends with unreleased DVD's, Screeners, R5's, Audio, Cams, Silvers,
...and any other good sources you may have to offer - contact us: t0xicreleases@hushmail.com

::::::::::::::::::::::::::::::::::::   Respect To   :::::::::::::::::::::::::::::::::::::
::IMAGiNE,FLAWL3SS,Hive-CM8,DiGiTALiNK,Tranz,Vik,OneTwo,Joey,bob,Unevano & our friends on utn and PA::
                       "and to all of you who support us, Thank-You"


[img]http://www.leetleech.org/images/81220099155096612603.png[/img]
[img]http://www.leetleech.org/images/82425987748880464861.png[/img]
[img]http://www.leetleech.org/images/83499651568261780504.png[/img]
[img]http://www.leetleech.org/images/18404530826791957880.png[/img]
[img]http://www.leetleech.org/images/95334639363709284242.png[/img]